<svg width="204" height="33" viewBox="0 0 204 33" fill="none" xmlns="http://www.w3.org/2000/svg">
<path d="M42.5195 7.07422C43.1576 7.07422 43.7773 7.18359 44.3789 7.40234C44.9987 7.62109 45.5911 7.9401 46.1562 8.35938C46.2474 8.45052 46.3477 8.54167 46.457 8.63281C46.5482 8.54167 46.6484 8.45052 46.7578 8.35938C47.3229 7.9401 47.9062 7.62109 48.5078 7.40234C49.1276 7.18359 49.7474 7.07422 50.3672 7.07422C51.0052 7.07422 51.625 7.18359 52.2266 7.40234C52.8464 7.62109 53.4297 7.94922 53.9766 8.38672C54.5417 8.80599 55.0339 9.37109 55.4531 10.082C55.8906 10.793 56.1094 11.6406 56.1094 12.625V22.4961C56 23.5898 55.3984 24.1823 54.3047 24.2734C53.7943 24.2734 53.3477 24.1094 52.9648 23.7812C52.6003 23.4349 52.418 23.0065 52.418 22.4961V12.8438C52.418 12.4062 52.3359 12.0417 52.1719 11.75C52.0078 11.4401 51.8255 11.2031 51.625 11.0391C51.4245 10.8568 51.2148 10.7292 50.9961 10.6562C50.7773 10.5651 50.5586 10.5195 50.3398 10.5195C50.1211 10.5195 49.9023 10.5651 49.6836 10.6562C49.4831 10.7292 49.2826 10.8568 49.082 11.0391C48.8815 11.2031 48.6992 11.4401 48.5352 11.75C48.3711 12.0417 48.2799 12.4062 48.2617 12.8438V22.4961C48.1523 23.5898 47.5508 24.1823 46.457 24.2734C45.9466 24.2734 45.5 24.1094 45.1172 23.7812C44.7526 23.4349 44.5703 23.0065 44.5703 22.4961V12.8438C44.5703 12.4062 44.4883 12.0417 44.3242 11.75C44.1602 11.4401 43.9779 11.2031 43.7773 11.0391C43.5768 10.8568 43.3672 10.7292 43.1484 10.6562C42.9297 10.5651 42.7109 10.5195 42.4922 10.5195C42.2734 10.5195 42.0547 10.5651 41.8359 10.6562C41.6354 10.7292 41.4349 10.8568 41.2344 11.0391C41.0339 11.2031 40.8516 11.4401 40.6875 11.75C40.5234 12.0417 40.4323 12.4062 40.4141 12.8438V22.4961C40.3229 23.5898 39.7305 24.1823 38.6367 24.2734C38.1263 24.2734 37.6797 24.1094 37.2969 23.7812C36.9323 23.4349 36.75 23.0065 36.75 22.4961V12.625C36.7865 11.6406 37.0143 10.793 37.4336 10.082C37.8529 9.37109 38.3451 8.80599 38.9102 8.38672C39.4753 7.94922 40.0586 7.62109 40.6602 7.40234C41.2799 7.18359 41.8997 7.07422 42.5195 7.07422ZM74.8398 22.4961V15.9062C74.8398 15.4505 74.6029 15.2135 74.1289 15.1953H64.5586C64.2122 15.2135 63.9115 15.3685 63.6562 15.6602C63.401 15.9336 63.2096 16.2617 63.082 16.6445C62.9727 17.0091 62.918 17.3828 62.918 17.7656C62.918 18.1302 62.9727 18.5039 63.082 18.8867C63.2096 19.2513 63.401 19.5794 63.6562 19.8711C63.9115 20.1445 64.2122 20.2812 64.5586 20.2812H71.5586C72.069 20.2812 72.4974 20.4635 72.8438 20.8281C73.2083 21.1745 73.3906 21.6029 73.3906 22.1133C73.3906 22.6237 73.2083 23.0521 72.8438 23.3984C72.4974 23.763 72.069 23.9453 71.5586 23.9453H64.668C63.3919 23.9271 62.3346 23.5716 61.4961 22.8789C60.6758 22.168 60.0833 21.375 59.7188 20.5C59.3724 19.6068 59.1992 18.6862 59.1992 17.7383C59.1992 16.8268 59.3815 15.9336 59.7461 15.0586C60.1107 14.1654 60.7031 13.3724 61.5234 12.6797C62.3438 11.9688 63.556 11.5859 65.1602 11.5312H76.6445C77.1549 11.5312 77.5924 11.7044 77.957 12.0508C78.3216 12.3789 78.513 12.7982 78.5312 13.3086V22.4961C78.5312 23.0065 78.3398 23.4349 77.957 23.7812C77.5924 24.1094 77.1549 24.2734 76.6445 24.2734C75.5508 24.1823 74.9492 23.5898 74.8398 22.4961ZM81.6484 13.3633C81.6484 12.8529 81.8216 12.4245 82.168 12.0781C82.5326 11.7135 82.9701 11.5312 83.4805 11.5312H98.7383C99.2487 11.5312 99.6862 11.7044 100.051 12.0508C100.397 12.4154 100.57 12.8529 100.57 13.3633C100.57 13.8737 100.424 14.2565 100.133 14.5117C99.8594 14.7487 99.5859 14.9492 99.3125 15.1133L90.043 20.2812H98.7383C99.2487 20.2812 99.6862 20.4544 100.051 20.8008C100.397 21.1654 100.57 21.6029 100.57 22.1133C100.57 22.6237 100.388 23.0612 100.023 23.4258C99.6771 23.7721 99.2487 23.9453 98.7383 23.9453H83.4805C82.9701 23.9453 82.5417 23.763 82.1953 23.3984C81.8307 23.0521 81.6484 22.6237 81.6484 22.1133C81.6484 21.6029 81.8307 21.1654 82.1953 20.8008C82.2682 20.7279 82.3411 20.6641 82.4141 20.6094L82.4688 20.582L92.2305 15.1953H83.4805C82.9701 15.1953 82.5417 15.013 82.1953 14.6484C81.8307 14.3021 81.6484 13.8737 81.6484 13.3633ZM118.863 22.4961V15.9062C118.863 15.4505 118.626 15.2135 118.152 15.1953H108.582C108.236 15.2135 107.935 15.3685 107.68 15.6602C107.424 15.9336 107.233 16.2617 107.105 16.6445C106.996 17.0091 106.941 17.3828 106.941 17.7656C106.941 18.1302 106.996 18.5039 107.105 18.8867C107.233 19.2513 107.424 19.5794 107.68 19.8711C107.935 20.1445 108.236 20.2812 108.582 20.2812H115.582C116.092 20.2812 116.521 20.4635 116.867 20.8281C117.232 21.1745 117.414 21.6029 117.414 22.1133C117.414 22.6237 117.232 23.0521 116.867 23.3984C116.521 23.763 116.092 23.9453 115.582 23.9453H108.691C107.415 23.9271 106.358 23.5716 105.52 22.8789C104.699 22.168 104.107 21.375 103.742 20.5C103.396 19.6068 103.223 18.6862 103.223 17.7383C103.223 16.8268 103.405 15.9336 103.77 15.0586C104.134 14.1654 104.727 13.3724 105.547 12.6797C106.367 11.9688 107.579 11.5859 109.184 11.5312H120.668C121.178 11.5312 121.616 11.7044 121.98 12.0508C122.345 12.3789 122.536 12.7982 122.555 13.3086V22.4961C122.555 23.0065 122.363 23.4349 121.98 23.7812C121.616 24.1094 121.178 24.2734 120.668 24.2734C119.574 24.1823 118.973 23.5898 118.863 22.4961ZM141.312 9.15234C141.422 8.05859 142.023 7.46615 143.117 7.375C143.628 7.375 144.065 7.54818 144.43 7.89453C144.812 8.22266 145.004 8.64193 145.004 9.15234V22.168C144.986 22.6784 144.794 23.1068 144.43 23.4531C144.065 23.7812 143.628 23.9453 143.117 23.9453H131.633C130.029 23.8906 128.816 23.5169 127.996 22.8242C127.176 22.1133 126.583 21.3203 126.219 20.4453C125.854 19.5521 125.672 18.6497 125.672 17.7383C125.672 16.7904 125.845 15.8789 126.191 15.0039C126.556 14.1107 127.148 13.3177 127.969 12.625C128.807 11.9141 129.865 11.5495 131.141 11.5312H138.031C138.542 11.5312 138.97 11.7135 139.316 12.0781C139.681 12.4245 139.863 12.8529 139.863 13.3633C139.863 13.8737 139.681 14.3112 139.316 14.6758C138.97 15.0221 138.542 15.1953 138.031 15.1953H131.031C130.685 15.1953 130.384 15.3411 130.129 15.6328C129.874 15.9062 129.682 16.2344 129.555 16.6172C129.445 16.9818 129.391 17.3464 129.391 17.7109C129.391 18.0938 129.445 18.4766 129.555 18.8594C129.682 19.224 129.874 19.5521 130.129 19.8438C130.384 20.1172 130.685 20.263 131.031 20.2812H140.602C141.076 20.263 141.312 20.026 141.312 19.5703V9.15234ZM149.734 17.4375C149.333 17.4375 148.987 17.3008 148.695 17.0273C148.404 16.7357 148.258 16.3893 148.258 15.9883C148.258 15.569 148.404 15.2227 148.695 14.9492C148.987 14.6576 149.333 14.5117 149.734 14.5117H154.438C154.839 14.5117 155.185 14.6576 155.477 14.9492C155.768 15.2227 155.914 15.569 155.914 15.9883C155.914 16.3893 155.768 16.7357 155.477 17.0273C155.185 17.3008 154.839 17.4375 154.438 17.4375H149.734ZM164.746 11.1211C165.384 11.1211 166.004 11.2305 166.605 11.4492C167.225 11.668 167.818 11.987 168.383 12.4062C168.474 12.4974 168.574 12.5885 168.684 12.6797C168.775 12.5885 168.875 12.4974 168.984 12.4062C169.549 11.987 170.133 11.668 170.734 11.4492C171.354 11.2305 171.974 11.1211 172.594 11.1211C173.232 11.1211 173.852 11.2305 174.453 11.4492C175.073 11.668 175.656 11.9961 176.203 12.4336C176.768 12.8529 177.26 13.418 177.68 14.1289C178.117 14.8398 178.336 15.6875 178.336 16.6719V22.4961C178.227 23.5898 177.625 24.1823 176.531 24.2734C176.021 24.2734 175.574 24.1094 175.191 23.7812C174.827 23.4349 174.645 23.0065 174.645 22.4961V16.8906C174.645 16.4531 174.562 16.0885 174.398 15.7969C174.234 15.487 174.052 15.25 173.852 15.0859C173.651 14.9036 173.441 14.776 173.223 14.7031C173.004 14.612 172.785 14.5664 172.566 14.5664C172.348 14.5664 172.129 14.612 171.91 14.7031C171.71 14.776 171.509 14.9036 171.309 15.0859C171.108 15.25 170.926 15.487 170.762 15.7969C170.598 16.0885 170.507 16.4531 170.488 16.8906V22.4961C170.379 23.5898 169.777 24.1823 168.684 24.2734C168.173 24.2734 167.727 24.1094 167.344 23.7812C166.979 23.4349 166.797 23.0065 166.797 22.4961V16.8906C166.797 16.4531 166.715 16.0885 166.551 15.7969C166.387 15.487 166.204 15.25 166.004 15.0859C165.803 14.9036 165.594 14.776 165.375 14.7031C165.156 14.612 164.938 14.5664 164.719 14.5664C164.5 14.5664 164.281 14.612 164.062 14.7031C163.862 14.776 163.661 14.9036 163.461 15.0859C163.26 15.25 163.078 15.487 162.914 15.7969C162.75 16.0885 162.659 16.4531 162.641 16.8906V22.4961C162.549 23.5898 161.957 24.1823 160.863 24.2734C160.353 24.2734 159.906 24.1094 159.523 23.7812C159.159 23.4349 158.977 23.0065 158.977 22.4961V16.6719C159.013 15.6875 159.241 14.8398 159.66 14.1289C160.079 13.418 160.572 12.8529 161.137 12.4336C161.702 11.9961 162.285 11.668 162.887 11.4492C163.507 11.2305 164.126 11.1211 164.746 11.1211ZM197.012 22.4961V15.9062C197.012 15.4505 196.775 15.2135 196.301 15.1953H186.73C186.384 15.2135 186.083 15.3685 185.828 15.6602C185.573 15.9336 185.382 16.2617 185.254 16.6445C185.145 17.0091 185.09 17.3828 185.09 17.7656C185.09 18.1302 185.145 18.5039 185.254 18.8867C185.382 19.2513 185.573 19.5794 185.828 19.8711C186.083 20.1445 186.384 20.2812 186.73 20.2812H193.73C194.241 20.2812 194.669 20.4635 195.016 20.8281C195.38 21.1745 195.562 21.6029 195.562 22.1133C195.562 22.6237 195.38 23.0521 195.016 23.3984C194.669 23.763 194.241 23.9453 193.73 23.9453H186.84C185.564 23.9271 184.507 23.5716 183.668 22.8789C182.848 22.168 182.255 21.375 181.891 20.5C181.544 19.6068 181.371 18.6862 181.371 17.7383C181.371 16.8268 181.553 15.9336 181.918 15.0586C182.283 14.1654 182.875 13.3724 183.695 12.6797C184.516 11.9688 185.728 11.5859 187.332 11.5312H198.816C199.327 11.5312 199.764 11.7044 200.129 12.0508C200.493 12.3789 200.685 12.7982 200.703 13.3086V22.4961C200.703 23.0065 200.512 23.4349 200.129 23.7812C199.764 24.1094 199.327 24.2734 198.816 24.2734C197.723 24.1823 197.121 23.5898 197.012 22.4961Z" fill="white"/>
<g filter="url(#filter0_dd_29_2)">
<path d="M22.5205 3H9.45238C5.88883 3 3 5.88883 3 9.45238V22.5205C3 26.084 5.88883 28.9729 9.45238 28.9729H22.5205C26.084 28.9729 28.9729 26.084 28.9729 22.5205V9.45238C28.9729 5.88883 26.084 3 22.5205 3Z" fill="white"/>
<path d="M22.5205 3H9.45238C5.88883 3 3 5.88883 3 9.45238V22.5205C3 26.084 5.88883 28.9729 9.45238 28.9729H22.5205C26.084 28.9729 28.9729 26.084 28.9729 22.5205V9.45238C28.9729 5.88883 26.084 3 22.5205 3Z" fill="url(#paint0_linear_29_2)"/>
</g>
<mask id="mask0_29_2" style="mask-type:luminance" maskUnits="userSpaceOnUse" x="6" y="7" width="20" height="18">
<path d="M6.43742 7.16772H25.5894V24.8077H6.43742V7.16772Z" fill="white"/>
</mask>
<g mask="url(#mask0_29_2)">
<path d="M20.4506 23.8499C17.0509 25.7122 13.842 24.8526 13.842 21.128V11.3243C13.842 9.03234 12.7896 7.98234 11.3532 8.12584C14.7525 6.2618 17.9609 7.1228 17.9609 10.8471V20.6509C17.9609 22.9428 19.0138 23.9934 20.4506 23.8499ZM10.5552 19.0593V11.3563C10.5552 11.289 10.5517 11.2219 10.5453 11.1551C10.5385 11.088 10.5286 11.0215 10.5155 10.9556C10.5024 10.8897 10.486 10.8246 10.4665 10.7602C10.4467 10.696 10.4242 10.6327 10.3983 10.5706C10.3726 10.5085 10.3437 10.4478 10.3119 10.3886C10.2801 10.3291 10.2454 10.2716 10.2081 10.2156C10.1708 10.1599 10.1305 10.106 10.0876 10.0538C10.045 10.0018 9.99984 9.95226 9.95201 9.90471C9.90447 9.85717 9.85459 9.81196 9.80238 9.76938C9.75017 9.72651 9.69622 9.68655 9.64022 9.64921C9.58392 9.61188 9.52617 9.57746 9.46697 9.54567C9.40747 9.51417 9.34651 9.4853 9.28409 9.45963C9.22197 9.43396 9.15838 9.41121 9.09392 9.39167C9.02947 9.37213 8.96413 9.3558 8.89792 9.34267C8.83201 9.32955 8.76522 9.31992 8.69813 9.31321C8.63105 9.30651 8.56367 9.3033 8.4963 9.3033C8.42892 9.3033 8.36155 9.30651 8.29447 9.31321C8.22738 9.31963 8.16088 9.32955 8.09467 9.34267C8.02847 9.3558 7.96313 9.37213 7.89867 9.39167C7.83422 9.41121 7.77063 9.43367 7.70851 9.45934C7.64609 9.4853 7.58542 9.51388 7.52592 9.54567C7.46642 9.57717 7.40867 9.61188 7.35238 9.64921C7.29638 9.68655 7.24242 9.72651 7.19022 9.76909C7.13801 9.81196 7.08813 9.85688 7.04059 9.90442C6.99276 9.95196 6.94755 10.0018 6.90467 10.0538C6.86209 10.1057 6.82184 10.1596 6.78451 10.2156C6.74688 10.2713 6.71217 10.3291 6.68038 10.3883C6.64859 10.4478 6.62001 10.5085 6.59405 10.5706C6.56838 10.6327 6.54563 10.696 6.52609 10.7602C6.50655 10.8246 6.49022 10.8897 6.47709 10.9556C6.46367 11.0215 6.45405 11.088 6.44734 11.1551C6.44063 11.2219 6.43742 11.289 6.43742 11.3563V19.5367C6.43742 23.261 9.64517 24.1205 13.0448 22.2585C11.6087 22.4018 10.5552 21.3512 10.5552 19.0593ZM18.982 9.98492C20.4185 9.84171 21.4717 10.8923 21.4717 13.1839V20.8868C21.4717 20.9542 21.4752 21.0213 21.4816 21.0881C21.4883 21.1552 21.4982 21.2214 21.5113 21.2876C21.5245 21.3535 21.5408 21.4185 21.5603 21.483C21.5799 21.5472 21.6026 21.6105 21.6286 21.6726C21.6543 21.7347 21.6831 21.7954 21.7149 21.8549C21.7467 21.9141 21.7814 21.9718 21.8188 22.0275C21.8561 22.0835 21.8963 22.1375 21.9392 22.1894C21.9818 22.2413 22.027 22.2912 22.0748 22.3388C22.1224 22.3863 22.1726 22.4315 22.2245 22.4741C22.2767 22.5167 22.3306 22.5566 22.3869 22.5943C22.4429 22.6316 22.5007 22.666 22.5602 22.6978C22.6197 22.7293 22.6806 22.7582 22.7428 22.7838C22.8052 22.8095 22.8685 22.8323 22.9329 22.8518C22.9977 22.8713 23.063 22.8877 23.1289 22.9008C23.1951 22.9139 23.2619 22.9235 23.329 22.9303C23.3961 22.937 23.4632 22.9402 23.5308 22.9402C23.5982 22.9402 23.6656 22.937 23.7327 22.9303C23.7998 22.9235 23.8663 22.9139 23.9325 22.9008C23.9987 22.8877 24.064 22.8713 24.1285 22.8518C24.1929 22.8323 24.2562 22.8095 24.3186 22.7838C24.3811 22.7582 24.4417 22.7293 24.5012 22.6978C24.5607 22.666 24.6185 22.6316 24.6745 22.594C24.7308 22.5566 24.7847 22.5167 24.8369 22.4741C24.8888 22.4315 24.939 22.3863 24.9865 22.3388C25.0341 22.2912 25.0796 22.2413 25.1222 22.1894C25.1651 22.1375 25.205 22.0835 25.2426 22.0275C25.28 21.9715 25.3147 21.9141 25.3465 21.8549C25.3783 21.7954 25.4071 21.7347 25.4328 21.6726C25.4585 21.6105 25.4812 21.5472 25.5008 21.483C25.5203 21.4185 25.5366 21.3535 25.5498 21.2876C25.5632 21.2214 25.5728 21.1552 25.5795 21.0881C25.5862 21.0213 25.5894 20.9542 25.5894 20.8868V12.7065C25.5894 8.98246 22.3831 8.12292 18.982 9.98492Z" fill="url(#paint1_linear_29_2)"/>
</g>
<defs>
<filter id="filter0_dd_29_2" x="0" y="1" width="31.9729" height="31.9729" filterUnits="userSpaceOnUse" color-interpolation-filters="sRGB">
<feFlood flood-opacity="0" result="BackgroundImageFix"/>
<feColorMatrix in="SourceAlpha" type="matrix" values="0 0 0 0 0 0 0 0 0 0 0 0 0 0 0 0 0 0 127 0" result="hardAlpha"/>
<feOffset dy="1"/>
<feGaussianBlur stdDeviation="1"/>
<feColorMatrix type="matrix" values="0 0 0 0 0.0627451 0 0 0 0 0.0941176 0 0 0 0 0.156863 0 0 0 0.06 0"/>
<feBlend mode="normal" in2="BackgroundImageFix" result="effect1_dropShadow_29_2"/>
<feColorMatrix in="SourceAlpha" type="matrix" values="0 0 0 0 0 0 0 0 0 0 0 0 0 0 0 0 0 0 127 0" result="hardAlpha"/>
<feOffset dy="1"/>
<feGaussianBlur stdDeviation="1.5"/>
<feColorMatrix type="matrix" values="0 0 0 0 0.0627451 0 0 0 0 0.0941176 0 0 0 0 0.156863 0 0 0 0.1 0"/>
<feBlend mode="normal" in2="effect1_dropShadow_29_2" result="effect2_dropShadow_29_2"/>
<feBlend mode="normal" in="SourceGraphic" in2="effect2_dropShadow_29_2" result="shape"/>
</filter>
<linearGradient id="paint0_linear_29_2" x1="15.9864" y1="2.91832" x2="15.9864" y2="29.0545" gradientUnits="userSpaceOnUse">
<stop stop-color="white"/>
<stop offset="1" stop-color="#D0D5DD"/>
</linearGradient>
<linearGradient id="paint1_linear_29_2" x1="16.0134" y1="7.17499" x2="16.0134" y2="24.7999" gradientUnits="userSpaceOnUse">
<stop stop-color="#332C54"/>
<stop offset="1" stop-color="#7161BA"/>
</linearGradient>
</defs>
</svg>
