<svg width="32" height="32" viewBox="0 0 32 32" fill="none" xmlns="http://www.w3.org/2000/svg">
<g filter="url(#filter0_dd_29_200)">
<path d="M22.5205 2H9.45238C5.88883 2 3 4.88883 3 8.45238V21.5205C3 25.084 5.88883 27.9729 9.45238 27.9729H22.5205C26.084 27.9729 28.9729 25.084 28.9729 21.5205V8.45238C28.9729 4.88883 26.084 2 22.5205 2Z" fill="white"/>
<path d="M22.5205 2H9.45238C5.88883 2 3 4.88883 3 8.45238V21.5205C3 25.084 5.88883 27.9729 9.45238 27.9729H22.5205C26.084 27.9729 28.9729 25.084 28.9729 21.5205V8.45238C28.9729 4.88883 26.084 2 22.5205 2Z" fill="url(#paint0_linear_29_200)"/>
</g>
<mask id="mask0_29_200" style="mask-type:luminance" maskUnits="userSpaceOnUse" x="6" y="6" width="20" height="18">
<path d="M6.43742 6.16772H25.5894V23.8077H6.43742V6.16772Z" fill="white"/>
</mask>
<g mask="url(#mask0_29_200)">
<path d="M20.4505 22.8499C17.0509 24.7122 13.842 23.8526 13.842 20.128V10.3243C13.842 8.03234 12.7896 6.98234 11.3532 7.12584C14.7525 5.2618 17.9609 6.1228 17.9609 9.84709V19.6509C17.9609 21.9428 19.0138 22.9934 20.4505 22.8499ZM10.5552 18.0593V10.3563C10.5552 10.289 10.5517 10.2219 10.5453 10.1551C10.5385 10.088 10.5286 10.0215 10.5155 9.95559C10.5024 9.88967 10.486 9.82463 10.4665 9.76017C10.4467 9.69601 10.4242 9.63271 10.3983 9.57059C10.3726 9.50846 10.3437 9.4478 10.3119 9.38859C10.2801 9.32909 10.2454 9.27163 10.2081 9.21563C10.1708 9.15992 10.1305 9.10596 10.0876 9.05376C10.045 9.00184 9.99984 8.95226 9.95201 8.90471C9.90447 8.85717 9.85459 8.81196 9.80238 8.76938C9.75017 8.72651 9.69622 8.68655 9.64022 8.64921C9.58392 8.61188 9.52617 8.57746 9.46697 8.54567C9.40747 8.51417 9.34651 8.4853 9.28409 8.45963C9.22197 8.43396 9.15838 8.41121 9.09392 8.39167C9.02947 8.37213 8.96413 8.3558 8.89792 8.34267C8.83201 8.32955 8.76522 8.31992 8.69813 8.31321C8.63105 8.30651 8.56367 8.3033 8.4963 8.3033C8.42892 8.3033 8.36155 8.30651 8.29447 8.31321C8.22738 8.31963 8.16088 8.32955 8.09467 8.34267C8.02847 8.3558 7.96313 8.37213 7.89867 8.39167C7.83422 8.41121 7.77063 8.43367 7.70851 8.45934C7.64609 8.4853 7.58542 8.51388 7.52592 8.54567C7.46642 8.57717 7.40867 8.61188 7.35238 8.64921C7.29638 8.68655 7.24242 8.72651 7.19022 8.76909C7.13801 8.81196 7.08813 8.85688 7.04059 8.90442C6.99276 8.95196 6.94755 9.00184 6.90467 9.05376C6.86209 9.10567 6.82184 9.15963 6.78451 9.21563C6.74688 9.27134 6.71217 9.32909 6.68038 9.3883C6.64859 9.4478 6.62001 9.50846 6.59405 9.57059C6.56838 9.63271 6.54563 9.69601 6.52609 9.76017C6.50655 9.82463 6.49022 9.88967 6.47709 9.95559C6.46367 10.0215 6.45405 10.088 6.44734 10.1551C6.44063 10.2219 6.43742 10.289 6.43742 10.3563V18.5367C6.43742 22.261 9.64517 23.1205 13.0448 21.2585C11.6087 21.4018 10.5552 20.3512 10.5552 18.0593ZM18.982 8.98492C20.4185 8.84171 21.4717 9.8923 21.4717 12.1839V19.8868C21.4717 19.9542 21.4752 20.0213 21.4816 20.0881C21.4883 20.1552 21.4982 20.2214 21.5113 20.2876C21.5245 20.3535 21.5408 20.4185 21.5603 20.483C21.5799 20.5472 21.6026 20.6105 21.6286 20.6726C21.6543 20.7347 21.6831 20.7954 21.7149 20.8549C21.7467 20.9141 21.7814 20.9718 21.8188 21.0275C21.8561 21.0835 21.8963 21.1375 21.9392 21.1894C21.9818 21.2413 22.027 21.2912 22.0748 21.3388C22.1224 21.3863 22.1725 21.4315 22.2245 21.4741C22.2767 21.5167 22.3306 21.5566 22.3869 21.5943C22.4429 21.6316 22.5007 21.666 22.5602 21.6978C22.6197 21.7293 22.6806 21.7582 22.7428 21.7838C22.8052 21.8095 22.8685 21.8323 22.9329 21.8518C22.9977 21.8713 23.063 21.8877 23.1289 21.9008C23.1951 21.9139 23.2619 21.9235 23.329 21.9303C23.3961 21.937 23.4632 21.9402 23.5308 21.9402C23.5982 21.9402 23.6656 21.937 23.7327 21.9303C23.7998 21.9235 23.8663 21.9139 23.9325 21.9008C23.9987 21.8877 24.064 21.8713 24.1285 21.8518C24.1929 21.8323 24.2562 21.8095 24.3186 21.7838C24.381 21.7582 24.4417 21.7293 24.5012 21.6978C24.5607 21.666 24.6185 21.6316 24.6745 21.594C24.7308 21.5566 24.7847 21.5167 24.8369 21.4741C24.8888 21.4315 24.939 21.3863 24.9865 21.3388C25.0341 21.2912 25.0796 21.2413 25.1222 21.1894C25.165 21.1375 25.205 21.0835 25.2426 21.0275C25.28 20.9715 25.3147 20.9141 25.3465 20.8549C25.3783 20.7954 25.4071 20.7347 25.4328 20.6726C25.4585 20.6105 25.4812 20.5472 25.5008 20.483C25.5203 20.4185 25.5366 20.3535 25.5498 20.2876C25.5632 20.2214 25.5728 20.1552 25.5795 20.0881C25.5862 20.0213 25.5894 19.9542 25.5894 19.8868V11.7065C25.5894 7.98246 22.3831 7.12292 18.982 8.98492Z" fill="url(#paint1_linear_29_200)"/>
</g>
<defs>
<filter id="filter0_dd_29_200" x="0" y="0" width="31.9729" height="31.9729" filterUnits="userSpaceOnUse" color-interpolation-filters="sRGB">
<feFlood flood-opacity="0" result="BackgroundImageFix"/>
<feColorMatrix in="SourceAlpha" type="matrix" values="0 0 0 0 0 0 0 0 0 0 0 0 0 0 0 0 0 0 127 0" result="hardAlpha"/>
<feOffset dy="1"/>
<feGaussianBlur stdDeviation="1"/>
<feColorMatrix type="matrix" values="0 0 0 0 0.0627451 0 0 0 0 0.0941176 0 0 0 0 0.156863 0 0 0 0.06 0"/>
<feBlend mode="normal" in2="BackgroundImageFix" result="effect1_dropShadow_29_200"/>
<feColorMatrix in="SourceAlpha" type="matrix" values="0 0 0 0 0 0 0 0 0 0 0 0 0 0 0 0 0 0 127 0" result="hardAlpha"/>
<feOffset dy="1"/>
<feGaussianBlur stdDeviation="1.5"/>
<feColorMatrix type="matrix" values="0 0 0 0 0.0627451 0 0 0 0 0.0941176 0 0 0 0 0.156863 0 0 0 0.1 0"/>
<feBlend mode="normal" in2="effect1_dropShadow_29_200" result="effect2_dropShadow_29_200"/>
<feBlend mode="normal" in="SourceGraphic" in2="effect2_dropShadow_29_200" result="shape"/>
</filter>
<linearGradient id="paint0_linear_29_200" x1="15.9864" y1="1.91832" x2="15.9864" y2="28.0545" gradientUnits="userSpaceOnUse">
<stop stop-color="white"/>
<stop offset="1" stop-color="#D0D5DD"/>
</linearGradient>
<linearGradient id="paint1_linear_29_200" x1="16.0134" y1="6.17499" x2="16.0134" y2="23.7999" gradientUnits="userSpaceOnUse">
<stop stop-color="#332C54"/>
<stop offset="1" stop-color="#7161BA"/>
</linearGradient>
</defs>
</svg>
