<svg width="204" height="32" viewBox="0 0 204 32" fill="none" xmlns="http://www.w3.org/2000/svg">
<path d="M42.5195 9.07422C43.1576 9.07422 43.7773 9.18359 44.3789 9.40234C44.9987 9.62109 45.5911 9.9401 46.1562 10.3594C46.2474 10.4505 46.3477 10.5417 46.457 10.6328C46.5482 10.5417 46.6484 10.4505 46.7578 10.3594C47.3229 9.9401 47.9062 9.62109 48.5078 9.40234C49.1276 9.18359 49.7474 9.07422 50.3672 9.07422C51.0052 9.07422 51.625 9.18359 52.2266 9.40234C52.8464 9.62109 53.4297 9.94922 53.9766 10.3867C54.5417 10.806 55.0339 11.3711 55.4531 12.082C55.8906 12.793 56.1094 13.6406 56.1094 14.625V24.4961C56 25.5898 55.3984 26.1823 54.3047 26.2734C53.7943 26.2734 53.3477 26.1094 52.9648 25.7812C52.6003 25.4349 52.418 25.0065 52.418 24.4961V14.8438C52.418 14.4062 52.3359 14.0417 52.1719 13.75C52.0078 13.4401 51.8255 13.2031 51.625 13.0391C51.4245 12.8568 51.2148 12.7292 50.9961 12.6562C50.7773 12.5651 50.5586 12.5195 50.3398 12.5195C50.1211 12.5195 49.9023 12.5651 49.6836 12.6562C49.4831 12.7292 49.2826 12.8568 49.082 13.0391C48.8815 13.2031 48.6992 13.4401 48.5352 13.75C48.3711 14.0417 48.2799 14.4062 48.2617 14.8438V24.4961C48.1523 25.5898 47.5508 26.1823 46.457 26.2734C45.9466 26.2734 45.5 26.1094 45.1172 25.7812C44.7526 25.4349 44.5703 25.0065 44.5703 24.4961V14.8438C44.5703 14.4062 44.4883 14.0417 44.3242 13.75C44.1602 13.4401 43.9779 13.2031 43.7773 13.0391C43.5768 12.8568 43.3672 12.7292 43.1484 12.6562C42.9297 12.5651 42.7109 12.5195 42.4922 12.5195C42.2734 12.5195 42.0547 12.5651 41.8359 12.6562C41.6354 12.7292 41.4349 12.8568 41.2344 13.0391C41.0339 13.2031 40.8516 13.4401 40.6875 13.75C40.5234 14.0417 40.4323 14.4062 40.4141 14.8438V24.4961C40.3229 25.5898 39.7305 26.1823 38.6367 26.2734C38.1263 26.2734 37.6797 26.1094 37.2969 25.7812C36.9323 25.4349 36.75 25.0065 36.75 24.4961V14.625C36.7865 13.6406 37.0143 12.793 37.4336 12.082C37.8529 11.3711 38.3451 10.806 38.9102 10.3867C39.4753 9.94922 40.0586 9.62109 40.6602 9.40234C41.2799 9.18359 41.8997 9.07422 42.5195 9.07422ZM74.8398 24.4961V17.9062C74.8398 17.4505 74.6029 17.2135 74.1289 17.1953H64.5586C64.2122 17.2135 63.9115 17.3685 63.6562 17.6602C63.401 17.9336 63.2096 18.2617 63.082 18.6445C62.9727 19.0091 62.918 19.3828 62.918 19.7656C62.918 20.1302 62.9727 20.5039 63.082 20.8867C63.2096 21.2513 63.401 21.5794 63.6562 21.8711C63.9115 22.1445 64.2122 22.2812 64.5586 22.2812H71.5586C72.069 22.2812 72.4974 22.4635 72.8438 22.8281C73.2083 23.1745 73.3906 23.6029 73.3906 24.1133C73.3906 24.6237 73.2083 25.0521 72.8438 25.3984C72.4974 25.763 72.069 25.9453 71.5586 25.9453H64.668C63.3919 25.9271 62.3346 25.5716 61.4961 24.8789C60.6758 24.168 60.0833 23.375 59.7188 22.5C59.3724 21.6068 59.1992 20.6862 59.1992 19.7383C59.1992 18.8268 59.3815 17.9336 59.7461 17.0586C60.1107 16.1654 60.7031 15.3724 61.5234 14.6797C62.3438 13.9688 63.556 13.5859 65.1602 13.5312H76.6445C77.1549 13.5312 77.5924 13.7044 77.957 14.0508C78.3216 14.3789 78.513 14.7982 78.5312 15.3086V24.4961C78.5312 25.0065 78.3398 25.4349 77.957 25.7812C77.5924 26.1094 77.1549 26.2734 76.6445 26.2734C75.5508 26.1823 74.9492 25.5898 74.8398 24.4961ZM81.6484 15.3633C81.6484 14.8529 81.8216 14.4245 82.168 14.0781C82.5326 13.7135 82.9701 13.5312 83.4805 13.5312H98.7383C99.2487 13.5312 99.6862 13.7044 100.051 14.0508C100.397 14.4154 100.57 14.8529 100.57 15.3633C100.57 15.8737 100.424 16.2565 100.133 16.5117C99.8594 16.7487 99.5859 16.9492 99.3125 17.1133L90.043 22.2812H98.7383C99.2487 22.2812 99.6862 22.4544 100.051 22.8008C100.397 23.1654 100.57 23.6029 100.57 24.1133C100.57 24.6237 100.388 25.0612 100.023 25.4258C99.6771 25.7721 99.2487 25.9453 98.7383 25.9453H83.4805C82.9701 25.9453 82.5417 25.763 82.1953 25.3984C81.8307 25.0521 81.6484 24.6237 81.6484 24.1133C81.6484 23.6029 81.8307 23.1654 82.1953 22.8008C82.2682 22.7279 82.3411 22.6641 82.4141 22.6094L82.4688 22.582L92.2305 17.1953H83.4805C82.9701 17.1953 82.5417 17.013 82.1953 16.6484C81.8307 16.3021 81.6484 15.8737 81.6484 15.3633ZM118.863 24.4961V17.9062C118.863 17.4505 118.626 17.2135 118.152 17.1953H108.582C108.236 17.2135 107.935 17.3685 107.68 17.6602C107.424 17.9336 107.233 18.2617 107.105 18.6445C106.996 19.0091 106.941 19.3828 106.941 19.7656C106.941 20.1302 106.996 20.5039 107.105 20.8867C107.233 21.2513 107.424 21.5794 107.68 21.8711C107.935 22.1445 108.236 22.2812 108.582 22.2812H115.582C116.092 22.2812 116.521 22.4635 116.867 22.8281C117.232 23.1745 117.414 23.6029 117.414 24.1133C117.414 24.6237 117.232 25.0521 116.867 25.3984C116.521 25.763 116.092 25.9453 115.582 25.9453H108.691C107.415 25.9271 106.358 25.5716 105.52 24.8789C104.699 24.168 104.107 23.375 103.742 22.5C103.396 21.6068 103.223 20.6862 103.223 19.7383C103.223 18.8268 103.405 17.9336 103.77 17.0586C104.134 16.1654 104.727 15.3724 105.547 14.6797C106.367 13.9688 107.579 13.5859 109.184 13.5312H120.668C121.178 13.5312 121.616 13.7044 121.98 14.0508C122.345 14.3789 122.536 14.7982 122.555 15.3086V24.4961C122.555 25.0065 122.363 25.4349 121.98 25.7812C121.616 26.1094 121.178 26.2734 120.668 26.2734C119.574 26.1823 118.973 25.5898 118.863 24.4961ZM141.312 11.1523C141.422 10.0586 142.023 9.46615 143.117 9.375C143.628 9.375 144.065 9.54818 144.43 9.89453C144.812 10.2227 145.004 10.6419 145.004 11.1523V24.168C144.986 24.6784 144.794 25.1068 144.43 25.4531C144.065 25.7812 143.628 25.9453 143.117 25.9453H131.633C130.029 25.8906 128.816 25.5169 127.996 24.8242C127.176 24.1133 126.583 23.3203 126.219 22.4453C125.854 21.5521 125.672 20.6497 125.672 19.7383C125.672 18.7904 125.845 17.8789 126.191 17.0039C126.556 16.1107 127.148 15.3177 127.969 14.625C128.807 13.9141 129.865 13.5495 131.141 13.5312H138.031C138.542 13.5312 138.97 13.7135 139.316 14.0781C139.681 14.4245 139.863 14.8529 139.863 15.3633C139.863 15.8737 139.681 16.3112 139.316 16.6758C138.97 17.0221 138.542 17.1953 138.031 17.1953H131.031C130.685 17.1953 130.384 17.3411 130.129 17.6328C129.874 17.9062 129.682 18.2344 129.555 18.6172C129.445 18.9818 129.391 19.3464 129.391 19.7109C129.391 20.0938 129.445 20.4766 129.555 20.8594C129.682 21.224 129.874 21.5521 130.129 21.8438C130.384 22.1172 130.685 22.263 131.031 22.2812H140.602C141.076 22.263 141.312 22.026 141.312 21.5703V11.1523ZM149.734 19.4375C149.333 19.4375 148.987 19.3008 148.695 19.0273C148.404 18.7357 148.258 18.3893 148.258 17.9883C148.258 17.569 148.404 17.2227 148.695 16.9492C148.987 16.6576 149.333 16.5117 149.734 16.5117H154.438C154.839 16.5117 155.185 16.6576 155.477 16.9492C155.768 17.2227 155.914 17.569 155.914 17.9883C155.914 18.3893 155.768 18.7357 155.477 19.0273C155.185 19.3008 154.839 19.4375 154.438 19.4375H149.734ZM164.746 13.1211C165.384 13.1211 166.004 13.2305 166.605 13.4492C167.225 13.668 167.818 13.987 168.383 14.4062C168.474 14.4974 168.574 14.5885 168.684 14.6797C168.775 14.5885 168.875 14.4974 168.984 14.4062C169.549 13.987 170.133 13.668 170.734 13.4492C171.354 13.2305 171.974 13.1211 172.594 13.1211C173.232 13.1211 173.852 13.2305 174.453 13.4492C175.073 13.668 175.656 13.9961 176.203 14.4336C176.768 14.8529 177.26 15.418 177.68 16.1289C178.117 16.8398 178.336 17.6875 178.336 18.6719V24.4961C178.227 25.5898 177.625 26.1823 176.531 26.2734C176.021 26.2734 175.574 26.1094 175.191 25.7812C174.827 25.4349 174.645 25.0065 174.645 24.4961V18.8906C174.645 18.4531 174.562 18.0885 174.398 17.7969C174.234 17.487 174.052 17.25 173.852 17.0859C173.651 16.9036 173.441 16.776 173.223 16.7031C173.004 16.612 172.785 16.5664 172.566 16.5664C172.348 16.5664 172.129 16.612 171.91 16.7031C171.71 16.776 171.509 16.9036 171.309 17.0859C171.108 17.25 170.926 17.487 170.762 17.7969C170.598 18.0885 170.507 18.4531 170.488 18.8906V24.4961C170.379 25.5898 169.777 26.1823 168.684 26.2734C168.173 26.2734 167.727 26.1094 167.344 25.7812C166.979 25.4349 166.797 25.0065 166.797 24.4961V18.8906C166.797 18.4531 166.715 18.0885 166.551 17.7969C166.387 17.487 166.204 17.25 166.004 17.0859C165.803 16.9036 165.594 16.776 165.375 16.7031C165.156 16.612 164.938 16.5664 164.719 16.5664C164.5 16.5664 164.281 16.612 164.062 16.7031C163.862 16.776 163.661 16.9036 163.461 17.0859C163.26 17.25 163.078 17.487 162.914 17.7969C162.75 18.0885 162.659 18.4531 162.641 18.8906V24.4961C162.549 25.5898 161.957 26.1823 160.863 26.2734C160.353 26.2734 159.906 26.1094 159.523 25.7812C159.159 25.4349 158.977 25.0065 158.977 24.4961V18.6719C159.013 17.6875 159.241 16.8398 159.66 16.1289C160.079 15.418 160.572 14.8529 161.137 14.4336C161.702 13.9961 162.285 13.668 162.887 13.4492C163.507 13.2305 164.126 13.1211 164.746 13.1211ZM197.012 24.4961V17.9062C197.012 17.4505 196.775 17.2135 196.301 17.1953H186.73C186.384 17.2135 186.083 17.3685 185.828 17.6602C185.573 17.9336 185.382 18.2617 185.254 18.6445C185.145 19.0091 185.09 19.3828 185.09 19.7656C185.09 20.1302 185.145 20.5039 185.254 20.8867C185.382 21.2513 185.573 21.5794 185.828 21.8711C186.083 22.1445 186.384 22.2812 186.73 22.2812H193.73C194.241 22.2812 194.669 22.4635 195.016 22.8281C195.38 23.1745 195.562 23.6029 195.562 24.1133C195.562 24.6237 195.38 25.0521 195.016 25.3984C194.669 25.763 194.241 25.9453 193.73 25.9453H186.84C185.564 25.9271 184.507 25.5716 183.668 24.8789C182.848 24.168 182.255 23.375 181.891 22.5C181.544 21.6068 181.371 20.6862 181.371 19.7383C181.371 18.8268 181.553 17.9336 181.918 17.0586C182.283 16.1654 182.875 15.3724 183.695 14.6797C184.516 13.9688 185.728 13.5859 187.332 13.5312H198.816C199.327 13.5312 199.764 13.7044 200.129 14.0508C200.493 14.3789 200.685 14.7982 200.703 15.3086V24.4961C200.703 25.0065 200.512 25.4349 200.129 25.7812C199.764 26.1094 199.327 26.2734 198.816 26.2734C197.723 26.1823 197.121 25.5898 197.012 24.4961Z" fill="white"/>
<g filter="url(#filter0_dd_29_2)">
<path d="M22.5205 2H9.45238C5.88883 2 3 4.88883 3 8.45238V21.5205C3 25.084 5.88883 27.9729 9.45238 27.9729H22.5205C26.084 27.9729 28.9729 25.084 28.9729 21.5205V8.45238C28.9729 4.88883 26.084 2 22.5205 2Z" fill="white"/>
<path d="M22.5205 2H9.45238C5.88883 2 3 4.88883 3 8.45238V21.5205C3 25.084 5.88883 27.9729 9.45238 27.9729H22.5205C26.084 27.9729 28.9729 25.084 28.9729 21.5205V8.45238C28.9729 4.88883 26.084 2 22.5205 2Z" fill="url(#paint0_linear_29_2)"/>
</g>
<mask id="mask0_29_2" style="mask-type:luminance" maskUnits="userSpaceOnUse" x="6" y="6" width="20" height="18">
<path d="M6.43742 6.16772H25.5894V23.8077H6.43742V6.16772Z" fill="white"/>
</mask>
<g mask="url(#mask0_29_2)">
<path d="M20.4505 22.8499C17.0509 24.7122 13.842 23.8526 13.842 20.128V10.3243C13.842 8.03234 12.7896 6.98234 11.3532 7.12584C14.7525 5.2618 17.9609 6.1228 17.9609 9.84709V19.6509C17.9609 21.9428 19.0138 22.9934 20.4505 22.8499ZM10.5552 18.0593V10.3563C10.5552 10.289 10.5517 10.2219 10.5453 10.1551C10.5385 10.088 10.5286 10.0215 10.5155 9.95559C10.5024 9.88967 10.486 9.82463 10.4665 9.76017C10.4467 9.69601 10.4242 9.63271 10.3983 9.57059C10.3726 9.50846 10.3437 9.4478 10.3119 9.38859C10.2801 9.32909 10.2454 9.27163 10.2081 9.21563C10.1708 9.15992 10.1305 9.10596 10.0876 9.05376C10.045 9.00184 9.99984 8.95226 9.95201 8.90471C9.90447 8.85717 9.85459 8.81196 9.80238 8.76938C9.75017 8.72651 9.69622 8.68655 9.64022 8.64921C9.58392 8.61188 9.52617 8.57746 9.46697 8.54567C9.40747 8.51417 9.34651 8.4853 9.28409 8.45963C9.22197 8.43396 9.15838 8.41121 9.09392 8.39167C9.02947 8.37213 8.96413 8.3558 8.89792 8.34267C8.83201 8.32955 8.76522 8.31992 8.69813 8.31321C8.63105 8.30651 8.56367 8.3033 8.4963 8.3033C8.42892 8.3033 8.36155 8.30651 8.29447 8.31321C8.22738 8.31963 8.16088 8.32955 8.09467 8.34267C8.02847 8.3558 7.96313 8.37213 7.89867 8.39167C7.83422 8.41121 7.77063 8.43367 7.70851 8.45934C7.64609 8.4853 7.58542 8.51388 7.52592 8.54567C7.46642 8.57717 7.40867 8.61188 7.35238 8.64921C7.29638 8.68655 7.24242 8.72651 7.19022 8.76909C7.13801 8.81196 7.08813 8.85688 7.04059 8.90442C6.99276 8.95196 6.94755 9.00184 6.90467 9.05376C6.86209 9.10567 6.82184 9.15963 6.78451 9.21563C6.74688 9.27134 6.71217 9.32909 6.68038 9.3883C6.64859 9.4478 6.62001 9.50846 6.59405 9.57059C6.56838 9.63271 6.54563 9.69601 6.52609 9.76017C6.50655 9.82463 6.49022 9.88967 6.47709 9.95559C6.46367 10.0215 6.45405 10.088 6.44734 10.1551C6.44063 10.2219 6.43742 10.289 6.43742 10.3563V18.5367C6.43742 22.261 9.64517 23.1205 13.0448 21.2585C11.6087 21.4018 10.5552 20.3512 10.5552 18.0593ZM18.982 8.98492C20.4185 8.84171 21.4717 9.8923 21.4717 12.1839V19.8868C21.4717 19.9542 21.4752 20.0213 21.4816 20.0881C21.4883 20.1552 21.4982 20.2214 21.5113 20.2876C21.5245 20.3535 21.5408 20.4185 21.5603 20.483C21.5799 20.5472 21.6026 20.6105 21.6286 20.6726C21.6543 20.7347 21.6831 20.7954 21.7149 20.8549C21.7467 20.9141 21.7814 20.9718 21.8188 21.0275C21.8561 21.0835 21.8963 21.1375 21.9392 21.1894C21.9818 21.2413 22.027 21.2912 22.0748 21.3388C22.1224 21.3863 22.1725 21.4315 22.2245 21.4741C22.2767 21.5167 22.3306 21.5566 22.3869 21.5943C22.4429 21.6316 22.5007 21.666 22.5602 21.6978C22.6197 21.7293 22.6806 21.7582 22.7428 21.7838C22.8052 21.8095 22.8685 21.8323 22.9329 21.8518C22.9977 21.8713 23.063 21.8877 23.1289 21.9008C23.1951 21.9139 23.2619 21.9235 23.329 21.9303C23.3961 21.937 23.4632 21.9402 23.5308 21.9402C23.5982 21.9402 23.6656 21.937 23.7327 21.9303C23.7998 21.9235 23.8663 21.9139 23.9325 21.9008C23.9987 21.8877 24.064 21.8713 24.1285 21.8518C24.1929 21.8323 24.2562 21.8095 24.3186 21.7838C24.381 21.7582 24.4417 21.7293 24.5012 21.6978C24.5607 21.666 24.6185 21.6316 24.6745 21.594C24.7308 21.5566 24.7847 21.5167 24.8369 21.4741C24.8888 21.4315 24.939 21.3863 24.9865 21.3388C25.0341 21.2912 25.0796 21.2413 25.1222 21.1894C25.165 21.1375 25.205 21.0835 25.2426 21.0275C25.28 20.9715 25.3147 20.9141 25.3465 20.8549C25.3783 20.7954 25.4071 20.7347 25.4328 20.6726C25.4585 20.6105 25.4812 20.5472 25.5008 20.483C25.5203 20.4185 25.5366 20.3535 25.5498 20.2876C25.5632 20.2214 25.5728 20.1552 25.5795 20.0881C25.5862 20.0213 25.5894 19.9542 25.5894 19.8868V11.7065C25.5894 7.98246 22.3831 7.12292 18.982 8.98492Z" fill="url(#paint1_linear_29_2)"/>
</g>
<defs>
<filter id="filter0_dd_29_2" x="0" y="0" width="31.9729" height="31.9729" filterUnits="userSpaceOnUse" color-interpolation-filters="sRGB">
<feFlood flood-opacity="0" result="BackgroundImageFix"/>
<feColorMatrix in="SourceAlpha" type="matrix" values="0 0 0 0 0 0 0 0 0 0 0 0 0 0 0 0 0 0 127 0" result="hardAlpha"/>
<feOffset dy="1"/>
<feGaussianBlur stdDeviation="1"/>
<feColorMatrix type="matrix" values="0 0 0 0 0.0627451 0 0 0 0 0.0941176 0 0 0 0 0.156863 0 0 0 0.06 0"/>
<feBlend mode="normal" in2="BackgroundImageFix" result="effect1_dropShadow_29_2"/>
<feColorMatrix in="SourceAlpha" type="matrix" values="0 0 0 0 0 0 0 0 0 0 0 0 0 0 0 0 0 0 127 0" result="hardAlpha"/>
<feOffset dy="1"/>
<feGaussianBlur stdDeviation="1.5"/>
<feColorMatrix type="matrix" values="0 0 0 0 0.0627451 0 0 0 0 0.0941176 0 0 0 0 0.156863 0 0 0 0.1 0"/>
<feBlend mode="normal" in2="effect1_dropShadow_29_2" result="effect2_dropShadow_29_2"/>
<feBlend mode="normal" in="SourceGraphic" in2="effect2_dropShadow_29_2" result="shape"/>
</filter>
<linearGradient id="paint0_linear_29_2" x1="15.9864" y1="1.91832" x2="15.9864" y2="28.0545" gradientUnits="userSpaceOnUse">
<stop stop-color="white"/>
<stop offset="1" stop-color="#D0D5DD"/>
</linearGradient>
<linearGradient id="paint1_linear_29_2" x1="16.0134" y1="6.17499" x2="16.0134" y2="23.7999" gradientUnits="userSpaceOnUse">
<stop stop-color="#332C54"/>
<stop offset="1" stop-color="#7161BA"/>
</linearGradient>
</defs>
</svg>
